<?xml version="1.0" standalone="no"?>
<!DOCTYPE svg PUBLIC "-//W3C//DTD SVG 20010904//EN"
 "http://www.w3.org/TR/2001/REC-SVG-20010904/DTD/svg10.dtd">
<svg version="1.0" xmlns="http://www.w3.org/2000/svg"
 width="5350.000000pt" height="1094.000000pt" viewBox="0 0 5350.000000 1094.000000"
 preserveAspectRatio="xMidYMid meet">
<g transform="translate(0.000000,1094.000000) scale(0.100000,-0.100000)"
fill="#000000" stroke="none">
<path d="M2520 10933 c-991 -77 -1872 -695 -2278 -1598 -371 -827 -311 -1777
163 -2551 193 -315 489 -624 800 -834 392 -265 878 -430 1352 -458 l118 -7
-118 -8 c-482 -30 -935 -184 -1344 -457 -662 -441 -1091 -1139 -1194 -1940
-22 -169 -17 -544 9 -715 77 -498 268 -935 579 -1325 86 -108 293 -315 403
-404 424 -340 933 -546 1474 -597 155 -14 476 -7 621 15 489 73 942 269 1325
572 185 147 422 405 560 609 243 360 404 805 449 1240 5 46 9 -451 10 -1183
l1 -1263 1488 4 c1627 3 1552 1 1830 63 1048 234 1869 1067 2082 2112 55 275
70 626 36 880 -108 812 -534 1498 -1206 1947 -254 169 -627 326 -926 389 -129
27 -335 55 -419 57 -29 1 5 7 80 15 388 40 692 128 1014 295 639 331 1122 899
1345 1584 242 744 146 1576 -260 2245 -386 637 -1017 1092 -1740 1254 -213 48
-332 60 -594 60 -262 0 -380 -12 -595 -60 -873 -195 -1609 -823 -1938 -1654
-103 -259 -162 -517 -190 -825 -2 -22 -4 542 -5 1253 l-2 1292 -1442 -2 c-794
-1 -1463 -3 -1488 -5z m2979 -3228 c232 -1164 1157 -2039 2321 -2195 l135 -18
-1252 -1 -1253 -1 -1 -1262 c-1 -1117 -3 -1250 -15 -1151 -136 1128 -956 2054
-2059 2327 -140 35 -264 55 -434 70 -129 12 5 14 1182 15 l1327 1 1 1288 c1
1284 1 1287 19 1137 9 -82 23 -177 29 -210z"/>
<path d="M15042 5488 l3 -3323 2433 -3 2432 -2 0 630 0 630 -1665 0 -1665 0 0
2695 0 2695 -770 0 -770 0 2 -3322z"/>
<path d="M22593 8113 c-171 -384 -755 -1695 -1298 -2913 -543 -1218 -1067
-2396 -1166 -2617 -98 -221 -179 -406 -179 -412 0 -8 230 -11 783 -11 l783 0
296 713 296 712 1540 3 1539 2 295 -712 294 -713 808 -3 c646 -2 807 0 803 10
-5 12 -1580 3535 -1812 4053 -56 127 -166 372 -243 545 -78 173 -314 702 -525
1175 l-385 860 -759 3 -759 2 -311 -697z m1594 -2108 c278 -671 507 -1226 510
-1232 4 -10 -209 -13 -1047 -13 -976 0 -1052 1 -1046 17 18 46 1039 2499 1044
2508 3 5 12 -6 20 -25 8 -19 241 -584 519 -1255z"/>
<path d="M28080 5485 l0 -3326 1913 4 c2044 4 1980 2 2327 53 835 121 1416
467 1682 999 116 231 167 462 168 753 0 329 -47 555 -170 807 -179 370 -505
652 -942 815 l-87 32 79 48 c135 81 211 140 321 250 301 299 445 634 466 1080
26 579 -219 1060 -707 1387 -268 179 -610 301 -1035 367 -322 50 -288 49
-2212 53 l-1803 4 0 -3326z m3419 2141 c352 -61 567 -176 693 -370 61 -94 89
-198 95 -347 7 -158 -12 -260 -68 -379 -33 -69 -55 -99 -122 -165 -139 -137
-316 -213 -607 -261 -93 -16 -207 -18 -992 -21 l-888 -4 0 786 0 786 898 -4
c774 -4 910 -6 991 -21z m291 -2689 c471 -81 717 -260 801 -582 28 -105 30
-314 4 -425 -75 -328 -324 -510 -805 -587 -92 -15 -230 -17 -1142 -20 l-1038
-4 0 821 0 821 1043 -4 c912 -3 1054 -5 1137 -20z"/>
<path d="M35340 5485 l0 -3325 2435 0 2435 0 0 630 0 630 -1665 0 -1665 0 0
2695 0 2695 -770 0 -770 0 0 -3325z"/>
<path d="M41080 5485 l0 -3325 2433 2 2432 3 0 625 0 625 -1667 3 -1668 2 0
2695 0 2695 -765 0 -765 0 0 -3325z"/>
<path d="M46810 5485 l0 -3325 1568 0 c919 0 1639 4 1742 10 885 51 1619 314
2225 797 136 108 355 325 460 458 265 331 470 738 571 1133 135 529 150 1147
39 1692 -275 1359 -1410 2326 -2955 2519 -304 38 -453 41 -2072 41 l-1578 0 0
-3325z m3305 2042 c457 -61 828 -210 1126 -453 87 -71 242 -232 306 -319 184
-246 307 -549 360 -886 26 -163 26 -607 0 -764 -98 -592 -377 -1033 -847
-1338 -256 -166 -547 -267 -920 -319 -134 -19 -209 -21 -967 -25 l-823 -5 0
2067 0 2067 823 -5 c676 -4 843 -7 942 -20z"/>
</g>
</svg>
